<?xml version="1.0" encoding="utf-8"?>
<!-- Generator: Adobe Illustrator 27.5.0, SVG Export Plug-In . SVG Version: 6.00 Build 0)  -->
<svg version="1.1" id="_レイヤー_2" xmlns="http://www.w3.org/2000/svg" xmlns:xlink="http://www.w3.org/1999/xlink" x="0px"
	 y="0px" viewBox="0 0 183.1 53.5" style="enable-background:new 0 0 183.1 53.5;" xml:space="preserve">
<style type="text/css">
	.st0{enable-background:new    ;}
	.st1{fill:none;stroke:#231815;stroke-width:2;stroke-linecap:round;stroke-linejoin:round;}
	.st2{fill:none;}
</style>
<g id="_レイヤー_2-2">
	<g class="st0">
		<path d="M58.7,37.9l1.3-2.6c2.2,2.2,6.2,3.8,10.4,3.8c5.9,0,8.4-2.5,8.4-5.6c0-8.6-19.4-3.3-19.4-15C59.5,14,63,10,71,10
			c3.5,0,7.2,1,9.7,2.8l-1.1,2.6c-2.7-1.8-5.8-2.6-8.6-2.6c-5.7,0-8.3,2.6-8.3,5.7c0,8.6,19.4,3.4,19.4,14.9c0,4.6-3.7,8.6-11.7,8.6
			C65.7,42,61,40.4,58.7,37.9z"/>
	</g>
	<g class="st0">
		<path d="M95.9,13.2h-11v-2.9h25.4v2.9h-11v28.6h-3.3V13.2z"/>
	</g>
	<g class="st0">
		<path d="M109.6,26c0-9.2,7-16,16.5-16c9.4,0,16.5,6.8,16.5,16c0,9.2-7.1,16-16.5,16C116.6,42,109.6,35.2,109.6,26z M139.3,26
			c0-7.5-5.6-13-13.2-13c-7.6,0-13.2,5.5-13.2,13c0,7.5,5.7,13,13.2,13C133.7,39.1,139.3,33.5,139.3,26z"/>
	</g>
	<g class="st0">
		<path d="M171.1,21.1c0,6.7-4.8,10.7-12.8,10.7h-8.4v9.9h-3.3V10.3h11.8C166.2,10.3,171.1,14.4,171.1,21.1z M167.8,21.1
			c0-5-3.3-7.9-9.6-7.9h-8.4v15.7h8.4C164.4,28.9,167.8,26,167.8,21.1z"/>
	</g>
	<path class="st1" d="M33.5,11.9v28l-10-8h-10v-12h10C23.5,19.8,33.5,11.8,33.5,11.9z"/>
	<path class="st1" d="M33.5,29.9c3-2,3-6,0-8"/>
	<path class="st1" d="M39.5,33.8c4.2-4.2,4.2-11.8,0-16 M43.5,39.8c8-8,8-20,0-28"/>
	<rect y="0" class="st2" width="183.1" height="51.7"/>
</g>
</svg>
