<?xml version="1.0" encoding="utf-8"?>
<!-- Generator: Adobe Illustrator 27.5.0, SVG Export Plug-In . SVG Version: 6.00 Build 0)  -->
<svg version="1.1" id="_レイヤー_2" xmlns="http://www.w3.org/2000/svg" xmlns:xlink="http://www.w3.org/1999/xlink" x="0px"
	 y="0px" viewBox="0 0 183.1 53.3" style="enable-background:new 0 0 183.1 53.3;" xml:space="preserve">
<style type="text/css">
	.st0{fill:none;stroke:#231815;stroke-width:2;stroke-linecap:round;stroke-linejoin:round;}
	.st1{fill:none;}
	.st2{enable-background:new    ;}
</style>
<g id="_レイヤー_2-2">
	<path class="st0" d="M33.5,11.9v28l-10-8h-10v-12h10C23.5,19.8,33.5,11.8,33.5,11.9z"/>
	<path class="st0" d="M33.5,29.9c3-2,3-6,0-8"/>
	<rect y="0" class="st1" width="183.1" height="51.7"/>
	<g class="st2">
		<path d="M86.2,20.9c0,6.7-4.8,10.7-12.8,10.7H65v9.9h-3.3V10.1h11.8C81.4,10.1,86.2,14.2,86.2,20.9z M82.9,20.9
			c0-5-3.3-7.9-9.6-7.9H65v15.7h8.4C79.6,28.7,82.9,25.9,82.9,20.9z"/>
	</g>
	<g class="st2">
		<path d="M91.8,10.1h3.3v28.6h17.6v2.9H91.8V10.1z"/>
	</g>
	<g class="st2">
		<path d="M139.8,33.2h-17.5l-3.8,8.4H115l14.4-31.4h3.3L147,41.6h-3.5L139.8,33.2z M138.6,30.5L131,13.6l-7.5,16.9H138.6z"/>
	</g>
	<g class="st2">
		<path d="M158.4,30.7v10.9h-3.3V30.7l-12.6-20.6h3.5l10.8,17.6l10.8-17.6h3.3L158.4,30.7z"/>
	</g>
</g>
</svg>
