<?xml version="1.0" encoding="UTF-8"?>
<svg id="_レイヤー_2" data-name="レイヤー 2" xmlns="http://www.w3.org/2000/svg" viewBox="0 0 314.46 57.27">
  <defs>
    <style>
      .cls-1 {
        fill: #231815;
        stroke: #231815;
        stroke-miterlimit: 10;
      }
    </style>
  </defs>
  <g id="_レイヤー_1-2" data-name="レイヤー 1">
    <g>
      <path class="cls-1" d="m28.12,29.07v.39c-.05,3.7-.78,7.2-2.2,10.49-1.42,3.29-3.38,6.2-5.9,8.72-2.52,2.52-5.44,4.48-8.76,5.86-3.32,1.39-6.83,2.08-10.53,2.08h-.23V1.99h.23c3.7,0,7.21.69,10.53,2.08,3.32,1.39,6.24,3.33,8.76,5.83,2.52,2.5,4.49,5.39,5.9,8.68,1.41,3.29,2.15,6.79,2.2,10.49ZM.81,39.64c0,1.18.18,2.31.54,3.4.36,1.08.87,2.1,1.54,3.05.67.95,1.45,1.79,2.35,2.51.9.72,1.89,1.29,2.97,1.7.36.1.71.21,1.04.31.33.1.67.19,1,.27.33.08.67.13,1,.15.33.03.68.04,1.04.04.82,0,1.62-.09,2.39-.27.77-.18,1.53-.42,2.28-.73.75-.31,1.45-.69,2.12-1.16.67-.46,1.26-1,1.77-1.62,1.13-1.18,2.12-2.48,2.97-3.9.85-1.41,1.57-2.88,2.16-4.4.59-1.52,1.04-3.07,1.35-4.67.31-1.59.46-3.21.46-4.86v-.31c0-1.65-.15-3.28-.46-4.9-.31-1.62-.76-3.19-1.35-4.71-.59-1.52-1.31-2.97-2.16-4.36-.85-1.39-1.84-2.7-2.97-3.93-.51-.62-1.11-1.14-1.77-1.58-.67-.44-1.38-.82-2.12-1.16-.75-.33-1.5-.58-2.28-.73s-1.57-.23-2.39-.23c-.36,0-.71.01-1.04.04-.33.03-.68.08-1.04.15-.36.08-.71.15-1.04.23-.33.08-.66.19-.96.35-1.08.41-2.07.98-2.97,1.7-.9.72-1.69,1.54-2.35,2.47-.67.93-1.18,1.94-1.54,3.05-.36,1.11-.54,2.23-.54,3.36v20.75Z"/>
      <path class="cls-1" d="m31.36,56.53L62.07,1.91v54.62h-.31V19.96c0-.46-.08-.91-.23-1.35-.15-.44-.37-.84-.66-1.2-.28-.36-.6-.67-.96-.93-.36-.26-.77-.44-1.23-.54-.1,0-.22-.01-.35-.04-.13-.03-.28-.05-.46-.08-.18-.03-.33-.04-.46-.04h-.35c-.36,0-.73.05-1.12.15-.39.1-.73.24-1.04.42-.31.18-.59.4-.85.66-.26.26-.46.54-.62.85l-21.83,38.65h-.23Z"/>
      <path class="cls-1" d="m66.62,1.99h.31v54.55h-.31V1.99Z"/>
      <path class="cls-1" d="m96.17,9.93c.41-1.03.9-1.98,1.47-2.85.57-.87,1.23-1.65,2.01-2.31.77-.67,1.65-1.22,2.62-1.66.98-.44,2.03-.73,3.16-.89v6.1c-1.7.1-3.2.42-4.51.96-1.31.54-2.39,1.18-3.24,1.93-.85.75-1.5,1.47-1.97,2.16s-.85,1.38-1.16,2.04v.08l-.39,1-11.42,32.48c-.46,1.18-1.07,2.25-1.81,3.2-.75.95-1.62,1.77-2.62,2.47s-2.1,1.22-3.28,1.58c-1.18.36-2.39.54-3.63.54v-.23c1.23,0,2.42-.19,3.55-.58,1.13-.39,2.19-.93,3.16-1.62.98-.69,1.84-1.52,2.58-2.47.75-.95,1.32-1.99,1.74-3.12l13.73-38.81Z"/>
      <path class="cls-1" d="m153.57,40.72c0-1.49-.28-2.89-.85-4.2-.57-1.31-1.35-2.47-2.35-3.47-1-1-2.16-1.79-3.47-2.35-1.31-.57-2.69-.85-4.13-.85h-20.83c-1.44,0-2.82.28-4.13.85-1.31.57-2.47,1.35-3.47,2.35-1,1-1.79,2.16-2.35,3.47-.57,1.31-.85,2.71-.85,4.2v15.82h-.39V1.91h.39v16.67c0,1.49.28,2.89.85,4.2.57,1.31,1.35,2.47,2.35,3.47s2.16,1.79,3.47,2.35c1.31.57,2.69.85,4.13.85h20.83c1.44,0,2.82-.28,4.13-.85,1.31-.57,2.47-1.35,3.47-2.35s1.79-2.16,2.35-3.47c.57-1.31.85-2.71.85-4.2V1.91h.31v54.55h-.31v-15.74Z"/>
      <path class="cls-1" d="m158.43,1.99h.31v54.55h-.31V1.99Z"/>
      <path class="cls-1" d="m202.4,1.99h.31v54.55h-.31V1.99Z"/>
      <path class="cls-1" d="m231.03,56.53V13.17c0-1.44-.29-2.83-.89-4.17-.59-1.34-1.39-2.52-2.39-3.55-1-1.03-2.16-1.84-3.47-2.43-1.31-.59-2.69-.89-4.13-.89h-12.34v-.23h46.6v.23h-12.35c-1.44,0-2.82.3-4.13.89-1.31.59-2.47,1.4-3.47,2.43-1,1.03-1.79,2.21-2.35,3.55-.57,1.34-.85,2.73-.85,4.17v43.36h-.23Z"/>
      <path class="cls-1" d="m286.73,56.53c-3.7,0-7.23-.71-10.57-2.12-3.34-1.41-6.26-3.37-8.76-5.86-2.5-2.49-4.45-5.4-5.86-8.72-1.42-3.32-2.12-6.83-2.12-10.53s.71-7.23,2.12-10.57c1.41-3.34,3.37-6.26,5.86-8.76s5.41-4.45,8.76-5.86c3.34-1.41,6.87-2.12,10.57-2.12s7.21.71,10.53,2.12c3.32,1.42,6.22,3.37,8.72,5.86,2.49,2.5,4.45,5.41,5.86,8.76,1.41,3.34,2.12,6.87,2.12,10.57s-.71,7.21-2.12,10.53c-1.42,3.32-3.37,6.22-5.86,8.72-2.5,2.5-5.4,4.45-8.72,5.86-3.32,1.42-6.83,2.12-10.53,2.12Zm0-54.24c-3.65,0-7.12.69-10.42,2.08-3.29,1.39-6.19,3.33-8.68,5.83s-4.44,5.39-5.83,8.68c-1.39,3.29-2.08,6.76-2.08,10.42s.69,7.11,2.08,10.38c1.39,3.27,3.33,6.15,5.83,8.64,2.49,2.5,5.39,4.44,8.68,5.83,3.29,1.39,6.76,2.08,10.42,2.08s7.11-.69,10.38-2.08c3.27-1.39,6.15-3.33,8.64-5.83,2.49-2.49,4.44-5.37,5.83-8.64,1.39-3.27,2.08-6.72,2.08-10.38s-.69-7.12-2.08-10.42c-1.39-3.29-3.33-6.18-5.83-8.68-2.5-2.49-5.38-4.44-8.64-5.83-3.27-1.39-6.73-2.08-10.38-2.08Z"/>
    </g>
  </g>
</svg>